G04 #@! TF.GenerationSoftware,KiCad,Pcbnew,6.0.4-6f826c9f35~116~ubuntu18.04.1*
G04 #@! TF.CreationDate,2023-06-15T12:53:14+01:00*
G04 #@! TF.ProjectId,sbc09_debugger,73626330-395f-4646-9562-75676765722e,rev?*
G04 #@! TF.SameCoordinates,Original*
G04 #@! TF.FileFunction,Legend,Top*
G04 #@! TF.FilePolarity,Positive*
%FSLAX46Y46*%
G04 Gerber Fmt 4.6, Leading zero omitted, Abs format (unit mm)*
G04 Created by KiCad (PCBNEW 6.0.4-6f826c9f35~116~ubuntu18.04.1) date 2023-06-15 12:53:14*
%MOMM*%
%LPD*%
G01*
G04 APERTURE LIST*
G04 Aperture macros list*
%AMRoundRect*
0 Rectangle with rounded corners*
0 $1 Rounding radius*
0 $2 $3 $4 $5 $6 $7 $8 $9 X,Y pos of 4 corners*
0 Add a 4 corners polygon primitive as box body*
4,1,4,$2,$3,$4,$5,$6,$7,$8,$9,$2,$3,0*
0 Add four circle primitives for the rounded corners*
1,1,$1+$1,$2,$3*
1,1,$1+$1,$4,$5*
1,1,$1+$1,$6,$7*
1,1,$1+$1,$8,$9*
0 Add four rect primitives between the rounded corners*
20,1,$1+$1,$2,$3,$4,$5,0*
20,1,$1+$1,$4,$5,$6,$7,0*
20,1,$1+$1,$6,$7,$8,$9,0*
20,1,$1+$1,$8,$9,$2,$3,0*%
G04 Aperture macros list end*
%ADD10C,0.120000*%
%ADD11C,0.150000*%
%ADD12RoundRect,0.050800X-0.850000X-0.850000X0.850000X-0.850000X0.850000X0.850000X-0.850000X0.850000X0*%
%ADD13O,1.801600X1.801600*%
%ADD14RoundRect,0.050800X-0.850000X0.850000X-0.850000X-0.850000X0.850000X-0.850000X0.850000X0.850000X0*%
%ADD15C,1.701600*%
%ADD16RoundRect,0.300800X-0.600000X-0.600000X0.600000X-0.600000X0.600000X0.600000X-0.600000X0.600000X0*%
%ADD17C,1.801600*%
%ADD18O,1.701600X1.701600*%
G04 APERTURE END LIST*
D10*
X172720000Y-81280000D02*
X172085000Y-81280000D01*
X172720000Y-78740000D02*
X172720000Y-81280000D01*
X172720000Y-83820000D02*
X172720000Y-86360000D01*
X172720000Y-86360000D02*
X172085000Y-86360000D01*
X172085000Y-83820000D02*
X172720000Y-83820000D01*
X172085000Y-78740000D02*
X172720000Y-78740000D01*
X127000000Y-129540000D02*
X167640000Y-129540000D01*
X167640000Y-129540000D02*
X167640000Y-72771000D01*
X167640000Y-72771000D02*
X127000000Y-72771000D01*
X127000000Y-72771000D02*
X127000000Y-129540000D01*
D11*
X174166785Y-86812380D02*
X173690595Y-86812380D01*
X173690595Y-85812380D01*
X174500119Y-86812380D02*
X174500119Y-85812380D01*
X175547738Y-86717142D02*
X175500119Y-86764761D01*
X175357261Y-86812380D01*
X175262023Y-86812380D01*
X175119166Y-86764761D01*
X175023928Y-86669523D01*
X174976309Y-86574285D01*
X174928690Y-86383809D01*
X174928690Y-86240952D01*
X174976309Y-86050476D01*
X175023928Y-85955238D01*
X175119166Y-85860000D01*
X175262023Y-85812380D01*
X175357261Y-85812380D01*
X175500119Y-85860000D01*
X175547738Y-85907619D01*
X173690595Y-81208571D02*
X174023928Y-81208571D01*
X174166785Y-81732380D02*
X173690595Y-81732380D01*
X173690595Y-80732380D01*
X174166785Y-80732380D01*
X141006285Y-101067507D02*
X141308666Y-101914173D01*
X141611047Y-101067507D01*
X142578666Y-101853697D02*
X142457714Y-101914173D01*
X142215809Y-101914173D01*
X142094857Y-101853697D01*
X142034380Y-101732745D01*
X142034380Y-101248935D01*
X142094857Y-101127983D01*
X142215809Y-101067507D01*
X142457714Y-101067507D01*
X142578666Y-101127983D01*
X142639142Y-101248935D01*
X142639142Y-101369888D01*
X142034380Y-101490840D01*
X143183428Y-101914173D02*
X143183428Y-101067507D01*
X143183428Y-101309411D02*
X143243904Y-101188459D01*
X143304380Y-101127983D01*
X143425333Y-101067507D01*
X143546285Y-101067507D01*
X143909142Y-101853697D02*
X144030095Y-101914173D01*
X144272000Y-101914173D01*
X144392952Y-101853697D01*
X144453428Y-101732745D01*
X144453428Y-101672269D01*
X144392952Y-101551316D01*
X144272000Y-101490840D01*
X144090571Y-101490840D01*
X143969619Y-101430364D01*
X143909142Y-101309411D01*
X143909142Y-101248935D01*
X143969619Y-101127983D01*
X144090571Y-101067507D01*
X144272000Y-101067507D01*
X144392952Y-101127983D01*
X144997714Y-101914173D02*
X144997714Y-101067507D01*
X144997714Y-100644173D02*
X144937238Y-100704650D01*
X144997714Y-100765126D01*
X145058190Y-100704650D01*
X144997714Y-100644173D01*
X144997714Y-100765126D01*
X145783904Y-101914173D02*
X145662952Y-101853697D01*
X145602476Y-101793221D01*
X145542000Y-101672269D01*
X145542000Y-101309411D01*
X145602476Y-101188459D01*
X145662952Y-101127983D01*
X145783904Y-101067507D01*
X145965333Y-101067507D01*
X146086285Y-101127983D01*
X146146761Y-101188459D01*
X146207238Y-101309411D01*
X146207238Y-101672269D01*
X146146761Y-101793221D01*
X146086285Y-101853697D01*
X145965333Y-101914173D01*
X145783904Y-101914173D01*
X146751523Y-101067507D02*
X146751523Y-101914173D01*
X146751523Y-101188459D02*
X146812000Y-101127983D01*
X146932952Y-101067507D01*
X147114380Y-101067507D01*
X147235333Y-101127983D01*
X147295809Y-101248935D01*
X147295809Y-101914173D01*
X149533428Y-101914173D02*
X148807714Y-101914173D01*
X149170571Y-101914173D02*
X149170571Y-100644173D01*
X149049619Y-100825602D01*
X148928666Y-100946554D01*
X148807714Y-101007030D01*
X150077714Y-101793221D02*
X150138190Y-101853697D01*
X150077714Y-101914173D01*
X150017238Y-101853697D01*
X150077714Y-101793221D01*
X150077714Y-101914173D01*
X150924380Y-100644173D02*
X151045333Y-100644173D01*
X151166285Y-100704650D01*
X151226761Y-100765126D01*
X151287238Y-100886078D01*
X151347714Y-101127983D01*
X151347714Y-101430364D01*
X151287238Y-101672269D01*
X151226761Y-101793221D01*
X151166285Y-101853697D01*
X151045333Y-101914173D01*
X150924380Y-101914173D01*
X150803428Y-101853697D01*
X150742952Y-101793221D01*
X150682476Y-101672269D01*
X150622000Y-101430364D01*
X150622000Y-101127983D01*
X150682476Y-100886078D01*
X150742952Y-100765126D01*
X150803428Y-100704650D01*
X150924380Y-100644173D01*
X152133904Y-100644173D02*
X152254857Y-100644173D01*
X152375809Y-100704650D01*
X152436285Y-100765126D01*
X152496761Y-100886078D01*
X152557238Y-101127983D01*
X152557238Y-101430364D01*
X152496761Y-101672269D01*
X152436285Y-101793221D01*
X152375809Y-101853697D01*
X152254857Y-101914173D01*
X152133904Y-101914173D01*
X152012952Y-101853697D01*
X151952476Y-101793221D01*
X151892000Y-101672269D01*
X151831523Y-101430364D01*
X151831523Y-101127983D01*
X151892000Y-100886078D01*
X151952476Y-100765126D01*
X152012952Y-100704650D01*
X152133904Y-100644173D01*
X139645571Y-104442683D02*
X139585095Y-104382207D01*
X139464142Y-104200778D01*
X139403666Y-104079826D01*
X139343190Y-103898397D01*
X139282714Y-103596016D01*
X139282714Y-103354111D01*
X139343190Y-103051730D01*
X139403666Y-102870302D01*
X139464142Y-102749350D01*
X139585095Y-102567921D01*
X139645571Y-102507445D01*
X140673666Y-103898397D02*
X140552714Y-103958873D01*
X140310809Y-103958873D01*
X140189857Y-103898397D01*
X140129380Y-103837921D01*
X140068904Y-103716969D01*
X140068904Y-103354111D01*
X140129380Y-103233159D01*
X140189857Y-103172683D01*
X140310809Y-103112207D01*
X140552714Y-103112207D01*
X140673666Y-103172683D01*
X141097000Y-104442683D02*
X141157476Y-104382207D01*
X141278428Y-104200778D01*
X141338904Y-104079826D01*
X141399380Y-103898397D01*
X141459857Y-103596016D01*
X141459857Y-103354111D01*
X141399380Y-103051730D01*
X141338904Y-102870302D01*
X141278428Y-102749350D01*
X141157476Y-102567921D01*
X141097000Y-102507445D01*
X143032238Y-103958873D02*
X143032238Y-102688873D01*
X143032238Y-103293635D02*
X143757952Y-103293635D01*
X143757952Y-103958873D02*
X143757952Y-102688873D01*
X144544142Y-103958873D02*
X144423190Y-103898397D01*
X144362714Y-103837921D01*
X144302238Y-103716969D01*
X144302238Y-103354111D01*
X144362714Y-103233159D01*
X144423190Y-103172683D01*
X144544142Y-103112207D01*
X144725571Y-103112207D01*
X144846523Y-103172683D01*
X144907000Y-103233159D01*
X144967476Y-103354111D01*
X144967476Y-103716969D01*
X144907000Y-103837921D01*
X144846523Y-103898397D01*
X144725571Y-103958873D01*
X144544142Y-103958873D01*
X146056047Y-103112207D02*
X146056047Y-104140302D01*
X145995571Y-104261254D01*
X145935095Y-104321730D01*
X145814142Y-104382207D01*
X145632714Y-104382207D01*
X145511761Y-104321730D01*
X146056047Y-103898397D02*
X145935095Y-103958873D01*
X145693190Y-103958873D01*
X145572238Y-103898397D01*
X145511761Y-103837921D01*
X145451285Y-103716969D01*
X145451285Y-103354111D01*
X145511761Y-103233159D01*
X145572238Y-103172683D01*
X145693190Y-103112207D01*
X145935095Y-103112207D01*
X146056047Y-103172683D01*
X146842238Y-103958873D02*
X146721285Y-103898397D01*
X146660809Y-103777445D01*
X146660809Y-102688873D01*
X147809857Y-103898397D02*
X147688904Y-103958873D01*
X147447000Y-103958873D01*
X147326047Y-103898397D01*
X147265571Y-103777445D01*
X147265571Y-103293635D01*
X147326047Y-103172683D01*
X147447000Y-103112207D01*
X147688904Y-103112207D01*
X147809857Y-103172683D01*
X147870333Y-103293635D01*
X147870333Y-103414588D01*
X147265571Y-103535540D01*
X148233190Y-103112207D02*
X148717000Y-103112207D01*
X148414619Y-102688873D02*
X148414619Y-103777445D01*
X148475095Y-103898397D01*
X148596047Y-103958873D01*
X148717000Y-103958873D01*
X150047476Y-102809826D02*
X150107952Y-102749350D01*
X150228904Y-102688873D01*
X150531285Y-102688873D01*
X150652238Y-102749350D01*
X150712714Y-102809826D01*
X150773190Y-102930778D01*
X150773190Y-103051730D01*
X150712714Y-103233159D01*
X149987000Y-103958873D01*
X150773190Y-103958873D01*
X151559380Y-102688873D02*
X151680333Y-102688873D01*
X151801285Y-102749350D01*
X151861761Y-102809826D01*
X151922238Y-102930778D01*
X151982714Y-103172683D01*
X151982714Y-103475064D01*
X151922238Y-103716969D01*
X151861761Y-103837921D01*
X151801285Y-103898397D01*
X151680333Y-103958873D01*
X151559380Y-103958873D01*
X151438428Y-103898397D01*
X151377952Y-103837921D01*
X151317476Y-103716969D01*
X151257000Y-103475064D01*
X151257000Y-103172683D01*
X151317476Y-102930778D01*
X151377952Y-102809826D01*
X151438428Y-102749350D01*
X151559380Y-102688873D01*
X152466523Y-102809826D02*
X152527000Y-102749350D01*
X152647952Y-102688873D01*
X152950333Y-102688873D01*
X153071285Y-102749350D01*
X153131761Y-102809826D01*
X153192238Y-102930778D01*
X153192238Y-103051730D01*
X153131761Y-103233159D01*
X152406047Y-103958873D01*
X153192238Y-103958873D01*
X153615571Y-102688873D02*
X154401761Y-102688873D01*
X153978428Y-103172683D01*
X154159857Y-103172683D01*
X154280809Y-103233159D01*
X154341285Y-103293635D01*
X154401761Y-103414588D01*
X154401761Y-103716969D01*
X154341285Y-103837921D01*
X154280809Y-103898397D01*
X154159857Y-103958873D01*
X153797000Y-103958873D01*
X153676047Y-103898397D01*
X153615571Y-103837921D01*
X174262023Y-79192380D02*
X173928690Y-78716190D01*
X173690595Y-79192380D02*
X173690595Y-78192380D01*
X174071547Y-78192380D01*
X174166785Y-78240000D01*
X174214404Y-78287619D01*
X174262023Y-78382857D01*
X174262023Y-78525714D01*
X174214404Y-78620952D01*
X174166785Y-78668571D01*
X174071547Y-78716190D01*
X173690595Y-78716190D01*
X174690595Y-79192380D02*
X174690595Y-78192380D01*
X174928690Y-78192380D01*
X175071547Y-78240000D01*
X175166785Y-78335238D01*
X175214404Y-78430476D01*
X175262023Y-78620952D01*
X175262023Y-78763809D01*
X175214404Y-78954285D01*
X175166785Y-79049523D01*
X175071547Y-79144761D01*
X174928690Y-79192380D01*
X174690595Y-79192380D01*
X175881071Y-78716190D02*
X175881071Y-79192380D01*
X175547738Y-78192380D02*
X175881071Y-78716190D01*
X176214404Y-78192380D01*
X177071547Y-79192380D02*
X176500119Y-79192380D01*
X176785833Y-79192380D02*
X176785833Y-78192380D01*
X176690595Y-78335238D01*
X176595357Y-78430476D01*
X176500119Y-78478095D01*
X138717880Y-131679761D02*
X138860738Y-131727380D01*
X139098833Y-131727380D01*
X139194071Y-131679761D01*
X139241690Y-131632142D01*
X139289309Y-131536904D01*
X139289309Y-131441666D01*
X139241690Y-131346428D01*
X139194071Y-131298809D01*
X139098833Y-131251190D01*
X138908357Y-131203571D01*
X138813119Y-131155952D01*
X138765500Y-131108333D01*
X138717880Y-131013095D01*
X138717880Y-130917857D01*
X138765500Y-130822619D01*
X138813119Y-130775000D01*
X138908357Y-130727380D01*
X139146452Y-130727380D01*
X139289309Y-130775000D01*
X139622642Y-131060714D02*
X139860738Y-131727380D01*
X140098833Y-131060714D02*
X139860738Y-131727380D01*
X139765500Y-131965476D01*
X139717880Y-132013095D01*
X139622642Y-132060714D01*
X140479785Y-131060714D02*
X140479785Y-131727380D01*
X140479785Y-131155952D02*
X140527404Y-131108333D01*
X140622642Y-131060714D01*
X140765500Y-131060714D01*
X140860738Y-131108333D01*
X140908357Y-131203571D01*
X140908357Y-131727380D01*
X141813119Y-131679761D02*
X141717880Y-131727380D01*
X141527404Y-131727380D01*
X141432166Y-131679761D01*
X141384547Y-131632142D01*
X141336928Y-131536904D01*
X141336928Y-131251190D01*
X141384547Y-131155952D01*
X141432166Y-131108333D01*
X141527404Y-131060714D01*
X141717880Y-131060714D01*
X141813119Y-131108333D01*
X143575023Y-131632142D02*
X143527404Y-131679761D01*
X143384547Y-131727380D01*
X143289309Y-131727380D01*
X143146452Y-131679761D01*
X143051214Y-131584523D01*
X143003595Y-131489285D01*
X142955976Y-131298809D01*
X142955976Y-131155952D01*
X143003595Y-130965476D01*
X143051214Y-130870238D01*
X143146452Y-130775000D01*
X143289309Y-130727380D01*
X143384547Y-130727380D01*
X143527404Y-130775000D01*
X143575023Y-130822619D01*
X144432166Y-131727380D02*
X144432166Y-131203571D01*
X144384547Y-131108333D01*
X144289309Y-131060714D01*
X144098833Y-131060714D01*
X144003595Y-131108333D01*
X144432166Y-131679761D02*
X144336928Y-131727380D01*
X144098833Y-131727380D01*
X144003595Y-131679761D01*
X143955976Y-131584523D01*
X143955976Y-131489285D01*
X144003595Y-131394047D01*
X144098833Y-131346428D01*
X144336928Y-131346428D01*
X144432166Y-131298809D01*
X144908357Y-131060714D02*
X144908357Y-132060714D01*
X144908357Y-131108333D02*
X145003595Y-131060714D01*
X145194071Y-131060714D01*
X145289309Y-131108333D01*
X145336928Y-131155952D01*
X145384547Y-131251190D01*
X145384547Y-131536904D01*
X145336928Y-131632142D01*
X145289309Y-131679761D01*
X145194071Y-131727380D01*
X145003595Y-131727380D01*
X144908357Y-131679761D01*
X145670261Y-131060714D02*
X146051214Y-131060714D01*
X145813119Y-130727380D02*
X145813119Y-131584523D01*
X145860738Y-131679761D01*
X145955976Y-131727380D01*
X146051214Y-131727380D01*
X146813119Y-131060714D02*
X146813119Y-131727380D01*
X146384547Y-131060714D02*
X146384547Y-131584523D01*
X146432166Y-131679761D01*
X146527404Y-131727380D01*
X146670261Y-131727380D01*
X146765500Y-131679761D01*
X146813119Y-131632142D01*
X147289309Y-131727380D02*
X147289309Y-131060714D01*
X147289309Y-131251190D02*
X147336928Y-131155952D01*
X147384547Y-131108333D01*
X147479785Y-131060714D01*
X147575023Y-131060714D01*
X148289309Y-131679761D02*
X148194071Y-131727380D01*
X148003595Y-131727380D01*
X147908357Y-131679761D01*
X147860738Y-131584523D01*
X147860738Y-131203571D01*
X147908357Y-131108333D01*
X148003595Y-131060714D01*
X148194071Y-131060714D01*
X148289309Y-131108333D01*
X148336928Y-131203571D01*
X148336928Y-131298809D01*
X147860738Y-131394047D01*
X148765500Y-131632142D02*
X148813119Y-131679761D01*
X148765500Y-131727380D01*
X148717880Y-131679761D01*
X148765500Y-131632142D01*
X148765500Y-131727380D01*
X148765500Y-131108333D02*
X148813119Y-131155952D01*
X148765500Y-131203571D01*
X148717880Y-131155952D01*
X148765500Y-131108333D01*
X148765500Y-131203571D01*
X150289309Y-130727380D02*
X150289309Y-131441666D01*
X150241690Y-131584523D01*
X150146452Y-131679761D01*
X150003595Y-131727380D01*
X149908357Y-131727380D01*
X150765500Y-131727380D02*
X150765500Y-130727380D01*
X151146452Y-130727380D01*
X151241690Y-130775000D01*
X151289309Y-130822619D01*
X151336928Y-130917857D01*
X151336928Y-131060714D01*
X151289309Y-131155952D01*
X151241690Y-131203571D01*
X151146452Y-131251190D01*
X150765500Y-131251190D01*
X152289309Y-131727380D02*
X151717880Y-131727380D01*
X152003595Y-131727380D02*
X152003595Y-130727380D01*
X151908357Y-130870238D01*
X151813119Y-130965476D01*
X151717880Y-131013095D01*
X154051214Y-131632142D02*
X154003595Y-131679761D01*
X153860738Y-131727380D01*
X153765500Y-131727380D01*
X153622642Y-131679761D01*
X153527404Y-131584523D01*
X153479785Y-131489285D01*
X153432166Y-131298809D01*
X153432166Y-131155952D01*
X153479785Y-130965476D01*
X153527404Y-130870238D01*
X153622642Y-130775000D01*
X153765500Y-130727380D01*
X153860738Y-130727380D01*
X154003595Y-130775000D01*
X154051214Y-130822619D01*
X154622642Y-131727380D02*
X154527404Y-131679761D01*
X154479785Y-131584523D01*
X154479785Y-130727380D01*
X155146452Y-131727380D02*
X155051214Y-131679761D01*
X155003595Y-131632142D01*
X154955976Y-131536904D01*
X154955976Y-131251190D01*
X155003595Y-131155952D01*
X155051214Y-131108333D01*
X155146452Y-131060714D01*
X155289309Y-131060714D01*
X155384547Y-131108333D01*
X155432166Y-131155952D01*
X155479785Y-131251190D01*
X155479785Y-131536904D01*
X155432166Y-131632142D01*
X155384547Y-131679761D01*
X155289309Y-131727380D01*
X155146452Y-131727380D01*
X155860738Y-131679761D02*
X155955976Y-131727380D01*
X156146452Y-131727380D01*
X156241690Y-131679761D01*
X156289309Y-131584523D01*
X156289309Y-131536904D01*
X156241690Y-131441666D01*
X156146452Y-131394047D01*
X156003595Y-131394047D01*
X155908357Y-131346428D01*
X155860738Y-131251190D01*
X155860738Y-131203571D01*
X155908357Y-131108333D01*
X156003595Y-131060714D01*
X156146452Y-131060714D01*
X156241690Y-131108333D01*
X157098833Y-131679761D02*
X157003595Y-131727380D01*
X156813119Y-131727380D01*
X156717880Y-131679761D01*
X156670261Y-131584523D01*
X156670261Y-131203571D01*
X156717880Y-131108333D01*
X156813119Y-131060714D01*
X157003595Y-131060714D01*
X157098833Y-131108333D01*
X157146452Y-131203571D01*
X157146452Y-131298809D01*
X156670261Y-131394047D01*
X158003595Y-131727380D02*
X158003595Y-130727380D01*
X158003595Y-131679761D02*
X157908357Y-131727380D01*
X157717880Y-131727380D01*
X157622642Y-131679761D01*
X157575023Y-131632142D01*
X157527404Y-131536904D01*
X157527404Y-131251190D01*
X157575023Y-131155952D01*
X157622642Y-131108333D01*
X157717880Y-131060714D01*
X157908357Y-131060714D01*
X158003595Y-131108333D01*
X158527404Y-131679761D02*
X158527404Y-131727380D01*
X158479785Y-131822619D01*
X158432166Y-131870238D01*
X158479785Y-131108333D02*
X158527404Y-131155952D01*
X158479785Y-131203571D01*
X158432166Y-131155952D01*
X158479785Y-131108333D01*
X158479785Y-131203571D01*
X160003595Y-130727380D02*
X160003595Y-131441666D01*
X159955976Y-131584523D01*
X159860738Y-131679761D01*
X159717880Y-131727380D01*
X159622642Y-131727380D01*
X160479785Y-131727380D02*
X160479785Y-130727380D01*
X160860738Y-130727380D01*
X160955976Y-130775000D01*
X161003595Y-130822619D01*
X161051214Y-130917857D01*
X161051214Y-131060714D01*
X161003595Y-131155952D01*
X160955976Y-131203571D01*
X160860738Y-131251190D01*
X160479785Y-131251190D01*
X161432166Y-130822619D02*
X161479785Y-130775000D01*
X161575023Y-130727380D01*
X161813119Y-130727380D01*
X161908357Y-130775000D01*
X161955976Y-130822619D01*
X162003595Y-130917857D01*
X162003595Y-131013095D01*
X161955976Y-131155952D01*
X161384547Y-131727380D01*
X162003595Y-131727380D01*
X162432166Y-131632142D02*
X162479785Y-131679761D01*
X162432166Y-131727380D01*
X162384547Y-131679761D01*
X162432166Y-131632142D01*
X162432166Y-131727380D01*
X162432166Y-131108333D02*
X162479785Y-131155952D01*
X162432166Y-131203571D01*
X162384547Y-131155952D01*
X162432166Y-131108333D01*
X162432166Y-131203571D01*
X163670261Y-131203571D02*
X164003595Y-131203571D01*
X164146452Y-131727380D02*
X163670261Y-131727380D01*
X163670261Y-130727380D01*
X164146452Y-130727380D01*
X164575023Y-131346428D02*
X165336928Y-131346428D01*
X165813119Y-131060714D02*
X166575023Y-131346428D01*
X165813119Y-131632142D01*
X167622642Y-131727380D02*
X167289309Y-131251190D01*
X167051214Y-131727380D02*
X167051214Y-130727380D01*
X167432166Y-130727380D01*
X167527404Y-130775000D01*
X167575023Y-130822619D01*
X167622642Y-130917857D01*
X167622642Y-131060714D01*
X167575023Y-131155952D01*
X167527404Y-131203571D01*
X167432166Y-131251190D01*
X167051214Y-131251190D01*
X168051214Y-131727380D02*
X168051214Y-130727380D01*
X168289309Y-130727380D01*
X168432166Y-130775000D01*
X168527404Y-130870238D01*
X168575023Y-130965476D01*
X168622642Y-131155952D01*
X168622642Y-131298809D01*
X168575023Y-131489285D01*
X168527404Y-131584523D01*
X168432166Y-131679761D01*
X168289309Y-131727380D01*
X168051214Y-131727380D01*
X169241690Y-131251190D02*
X169241690Y-131727380D01*
X168908357Y-130727380D02*
X169241690Y-131251190D01*
X169575023Y-130727380D01*
X170432166Y-131727380D02*
X169860738Y-131727380D01*
X170146452Y-131727380D02*
X170146452Y-130727380D01*
X170051214Y-130870238D01*
X169955976Y-130965476D01*
X169860738Y-131013095D01*
X170908357Y-131679761D02*
X170908357Y-131727380D01*
X170860738Y-131822619D01*
X170813119Y-131870238D01*
X172575023Y-131727380D02*
X172098833Y-131727380D01*
X172098833Y-130727380D01*
X172908357Y-131727380D02*
X172908357Y-130727380D01*
X173955976Y-131632142D02*
X173908357Y-131679761D01*
X173765500Y-131727380D01*
X173670261Y-131727380D01*
X173527404Y-131679761D01*
X173432166Y-131584523D01*
X173384547Y-131489285D01*
X173336928Y-131298809D01*
X173336928Y-131155952D01*
X173384547Y-130965476D01*
X173432166Y-130870238D01*
X173527404Y-130775000D01*
X173670261Y-130727380D01*
X173765500Y-130727380D01*
X173908357Y-130775000D01*
X173955976Y-130822619D01*
X174384547Y-131346428D02*
X175146452Y-131346428D01*
X175622642Y-131060714D02*
X176384547Y-131346428D01*
X175622642Y-131632142D01*
X176860738Y-131727380D02*
X176860738Y-130727380D01*
X177241690Y-130727380D01*
X177336928Y-130775000D01*
X177384547Y-130822619D01*
X177432166Y-130917857D01*
X177432166Y-131060714D01*
X177384547Y-131155952D01*
X177336928Y-131203571D01*
X177241690Y-131251190D01*
X176860738Y-131251190D01*
X177860738Y-131727380D02*
X177860738Y-130727380D01*
X178098833Y-130727380D01*
X178241690Y-130775000D01*
X178336928Y-130870238D01*
X178384547Y-130965476D01*
X178432166Y-131155952D01*
X178432166Y-131298809D01*
X178384547Y-131489285D01*
X178336928Y-131584523D01*
X178241690Y-131679761D01*
X178098833Y-131727380D01*
X177860738Y-131727380D01*
X179384547Y-131727380D02*
X178813119Y-131727380D01*
X179098833Y-131727380D02*
X179098833Y-130727380D01*
X179003595Y-130870238D01*
X178908357Y-130965476D01*
X178813119Y-131013095D01*
X137955976Y-133051666D02*
X138432166Y-133051666D01*
X137860738Y-133337380D02*
X138194071Y-132337380D01*
X138527404Y-133337380D01*
X138813119Y-133289761D02*
X138908357Y-133337380D01*
X139098833Y-133337380D01*
X139194071Y-133289761D01*
X139241690Y-133194523D01*
X139241690Y-133146904D01*
X139194071Y-133051666D01*
X139098833Y-133004047D01*
X138955976Y-133004047D01*
X138860738Y-132956428D01*
X138813119Y-132861190D01*
X138813119Y-132813571D01*
X138860738Y-132718333D01*
X138955976Y-132670714D01*
X139098833Y-132670714D01*
X139194071Y-132718333D01*
X139575023Y-132670714D02*
X139813119Y-133337380D01*
X140051214Y-132670714D02*
X139813119Y-133337380D01*
X139717880Y-133575476D01*
X139670261Y-133623095D01*
X139575023Y-133670714D01*
X140432166Y-132670714D02*
X140432166Y-133337380D01*
X140432166Y-132765952D02*
X140479785Y-132718333D01*
X140575023Y-132670714D01*
X140717880Y-132670714D01*
X140813119Y-132718333D01*
X140860738Y-132813571D01*
X140860738Y-133337380D01*
X141765500Y-133289761D02*
X141670261Y-133337380D01*
X141479785Y-133337380D01*
X141384547Y-133289761D01*
X141336928Y-133242142D01*
X141289309Y-133146904D01*
X141289309Y-132861190D01*
X141336928Y-132765952D01*
X141384547Y-132718333D01*
X141479785Y-132670714D01*
X141670261Y-132670714D01*
X141765500Y-132718333D01*
X143527404Y-133242142D02*
X143479785Y-133289761D01*
X143336928Y-133337380D01*
X143241690Y-133337380D01*
X143098833Y-133289761D01*
X143003595Y-133194523D01*
X142955976Y-133099285D01*
X142908357Y-132908809D01*
X142908357Y-132765952D01*
X142955976Y-132575476D01*
X143003595Y-132480238D01*
X143098833Y-132385000D01*
X143241690Y-132337380D01*
X143336928Y-132337380D01*
X143479785Y-132385000D01*
X143527404Y-132432619D01*
X144384547Y-133337380D02*
X144384547Y-132813571D01*
X144336928Y-132718333D01*
X144241690Y-132670714D01*
X144051214Y-132670714D01*
X143955976Y-132718333D01*
X144384547Y-133289761D02*
X144289309Y-133337380D01*
X144051214Y-133337380D01*
X143955976Y-133289761D01*
X143908357Y-133194523D01*
X143908357Y-133099285D01*
X143955976Y-133004047D01*
X144051214Y-132956428D01*
X144289309Y-132956428D01*
X144384547Y-132908809D01*
X144860738Y-132670714D02*
X144860738Y-133670714D01*
X144860738Y-132718333D02*
X144955976Y-132670714D01*
X145146452Y-132670714D01*
X145241690Y-132718333D01*
X145289309Y-132765952D01*
X145336928Y-132861190D01*
X145336928Y-133146904D01*
X145289309Y-133242142D01*
X145241690Y-133289761D01*
X145146452Y-133337380D01*
X144955976Y-133337380D01*
X144860738Y-133289761D01*
X145622642Y-132670714D02*
X146003595Y-132670714D01*
X145765500Y-132337380D02*
X145765500Y-133194523D01*
X145813119Y-133289761D01*
X145908357Y-133337380D01*
X146003595Y-133337380D01*
X146765500Y-132670714D02*
X146765500Y-133337380D01*
X146336928Y-132670714D02*
X146336928Y-133194523D01*
X146384547Y-133289761D01*
X146479785Y-133337380D01*
X146622642Y-133337380D01*
X146717880Y-133289761D01*
X146765500Y-133242142D01*
X147241690Y-133337380D02*
X147241690Y-132670714D01*
X147241690Y-132861190D02*
X147289309Y-132765952D01*
X147336928Y-132718333D01*
X147432166Y-132670714D01*
X147527404Y-132670714D01*
X148241690Y-133289761D02*
X148146452Y-133337380D01*
X147955976Y-133337380D01*
X147860738Y-133289761D01*
X147813119Y-133194523D01*
X147813119Y-132813571D01*
X147860738Y-132718333D01*
X147955976Y-132670714D01*
X148146452Y-132670714D01*
X148241690Y-132718333D01*
X148289309Y-132813571D01*
X148289309Y-132908809D01*
X147813119Y-133004047D01*
X148717880Y-133242142D02*
X148765500Y-133289761D01*
X148717880Y-133337380D01*
X148670261Y-133289761D01*
X148717880Y-133242142D01*
X148717880Y-133337380D01*
X148717880Y-132718333D02*
X148765500Y-132765952D01*
X148717880Y-132813571D01*
X148670261Y-132765952D01*
X148717880Y-132718333D01*
X148717880Y-132813571D01*
X150241690Y-132337380D02*
X150241690Y-133051666D01*
X150194071Y-133194523D01*
X150098833Y-133289761D01*
X149955976Y-133337380D01*
X149860738Y-133337380D01*
X150717880Y-133337380D02*
X150717880Y-132337380D01*
X151098833Y-132337380D01*
X151194071Y-132385000D01*
X151241690Y-132432619D01*
X151289309Y-132527857D01*
X151289309Y-132670714D01*
X151241690Y-132765952D01*
X151194071Y-132813571D01*
X151098833Y-132861190D01*
X150717880Y-132861190D01*
X152241690Y-133337380D02*
X151670261Y-133337380D01*
X151955976Y-133337380D02*
X151955976Y-132337380D01*
X151860738Y-132480238D01*
X151765500Y-132575476D01*
X151670261Y-132623095D01*
X153622642Y-132337380D02*
X153813119Y-132337380D01*
X153908357Y-132385000D01*
X154003595Y-132480238D01*
X154051214Y-132670714D01*
X154051214Y-133004047D01*
X154003595Y-133194523D01*
X153908357Y-133289761D01*
X153813119Y-133337380D01*
X153622642Y-133337380D01*
X153527404Y-133289761D01*
X153432166Y-133194523D01*
X153384547Y-133004047D01*
X153384547Y-132670714D01*
X153432166Y-132480238D01*
X153527404Y-132385000D01*
X153622642Y-132337380D01*
X154479785Y-132670714D02*
X154479785Y-133670714D01*
X154479785Y-132718333D02*
X154575023Y-132670714D01*
X154765500Y-132670714D01*
X154860738Y-132718333D01*
X154908357Y-132765952D01*
X154955976Y-132861190D01*
X154955976Y-133146904D01*
X154908357Y-133242142D01*
X154860738Y-133289761D01*
X154765500Y-133337380D01*
X154575023Y-133337380D01*
X154479785Y-133289761D01*
X155765500Y-133289761D02*
X155670261Y-133337380D01*
X155479785Y-133337380D01*
X155384547Y-133289761D01*
X155336928Y-133194523D01*
X155336928Y-132813571D01*
X155384547Y-132718333D01*
X155479785Y-132670714D01*
X155670261Y-132670714D01*
X155765500Y-132718333D01*
X155813119Y-132813571D01*
X155813119Y-132908809D01*
X155336928Y-133004047D01*
X156241690Y-132670714D02*
X156241690Y-133337380D01*
X156241690Y-132765952D02*
X156289309Y-132718333D01*
X156384547Y-132670714D01*
X156527404Y-132670714D01*
X156622642Y-132718333D01*
X156670261Y-132813571D01*
X156670261Y-133337380D01*
X157194071Y-133289761D02*
X157194071Y-133337380D01*
X157146452Y-133432619D01*
X157098833Y-133480238D01*
X157146452Y-132718333D02*
X157194071Y-132765952D01*
X157146452Y-132813571D01*
X157098833Y-132765952D01*
X157146452Y-132718333D01*
X157146452Y-132813571D01*
X160194071Y-132337380D02*
X160194071Y-133051666D01*
X160146452Y-133194523D01*
X160051214Y-133289761D01*
X159908357Y-133337380D01*
X159813119Y-133337380D01*
X160670261Y-133337380D02*
X160670261Y-132337380D01*
X161051214Y-132337380D01*
X161146452Y-132385000D01*
X161194071Y-132432619D01*
X161241690Y-132527857D01*
X161241690Y-132670714D01*
X161194071Y-132765952D01*
X161146452Y-132813571D01*
X161051214Y-132861190D01*
X160670261Y-132861190D01*
X161622642Y-132432619D02*
X161670261Y-132385000D01*
X161765500Y-132337380D01*
X162003595Y-132337380D01*
X162098833Y-132385000D01*
X162146452Y-132432619D01*
X162194071Y-132527857D01*
X162194071Y-132623095D01*
X162146452Y-132765952D01*
X161575023Y-133337380D01*
X162194071Y-133337380D01*
X162622642Y-133242142D02*
X162670261Y-133289761D01*
X162622642Y-133337380D01*
X162575023Y-133289761D01*
X162622642Y-133242142D01*
X162622642Y-133337380D01*
X162622642Y-132718333D02*
X162670261Y-132765952D01*
X162622642Y-132813571D01*
X162575023Y-132765952D01*
X162622642Y-132718333D01*
X162622642Y-132813571D01*
X163860738Y-132813571D02*
X164194071Y-132813571D01*
X164336928Y-133337380D02*
X163860738Y-133337380D01*
X163860738Y-132337380D01*
X164336928Y-132337380D01*
X164765500Y-132956428D02*
X165527404Y-132956428D01*
X166003595Y-132670714D02*
X166765500Y-132956428D01*
X166003595Y-133242142D01*
X167241690Y-133337380D02*
X167241690Y-132337380D01*
X167622642Y-132337380D01*
X167717880Y-132385000D01*
X167765500Y-132432619D01*
X167813119Y-132527857D01*
X167813119Y-132670714D01*
X167765500Y-132765952D01*
X167717880Y-132813571D01*
X167622642Y-132861190D01*
X167241690Y-132861190D01*
X168241690Y-133337380D02*
X168241690Y-132337380D01*
X168479785Y-132337380D01*
X168622642Y-132385000D01*
X168717880Y-132480238D01*
X168765500Y-132575476D01*
X168813119Y-132765952D01*
X168813119Y-132908809D01*
X168765500Y-133099285D01*
X168717880Y-133194523D01*
X168622642Y-133289761D01*
X168479785Y-133337380D01*
X168241690Y-133337380D01*
X169765500Y-133337380D02*
X169194071Y-133337380D01*
X169479785Y-133337380D02*
X169479785Y-132337380D01*
X169384547Y-132480238D01*
X169289309Y-132575476D01*
X169194071Y-132623095D01*
X130235476Y-69341697D02*
X130416904Y-69402173D01*
X130719285Y-69402173D01*
X130840238Y-69341697D01*
X130900714Y-69281221D01*
X130961190Y-69160269D01*
X130961190Y-69039316D01*
X130900714Y-68918364D01*
X130840238Y-68857888D01*
X130719285Y-68797411D01*
X130477380Y-68736935D01*
X130356428Y-68676459D01*
X130295952Y-68615983D01*
X130235476Y-68495030D01*
X130235476Y-68374078D01*
X130295952Y-68253126D01*
X130356428Y-68192650D01*
X130477380Y-68132173D01*
X130779761Y-68132173D01*
X130961190Y-68192650D01*
X131928809Y-68736935D02*
X132110238Y-68797411D01*
X132170714Y-68857888D01*
X132231190Y-68978840D01*
X132231190Y-69160269D01*
X132170714Y-69281221D01*
X132110238Y-69341697D01*
X131989285Y-69402173D01*
X131505476Y-69402173D01*
X131505476Y-68132173D01*
X131928809Y-68132173D01*
X132049761Y-68192650D01*
X132110238Y-68253126D01*
X132170714Y-68374078D01*
X132170714Y-68495030D01*
X132110238Y-68615983D01*
X132049761Y-68676459D01*
X131928809Y-68736935D01*
X131505476Y-68736935D01*
X133501190Y-69281221D02*
X133440714Y-69341697D01*
X133259285Y-69402173D01*
X133138333Y-69402173D01*
X132956904Y-69341697D01*
X132835952Y-69220745D01*
X132775476Y-69099792D01*
X132714999Y-68857888D01*
X132714999Y-68676459D01*
X132775476Y-68434554D01*
X132835952Y-68313602D01*
X132956904Y-68192650D01*
X133138333Y-68132173D01*
X133259285Y-68132173D01*
X133440714Y-68192650D01*
X133501190Y-68253126D01*
X134287380Y-68132173D02*
X134408333Y-68132173D01*
X134529285Y-68192650D01*
X134589761Y-68253126D01*
X134650238Y-68374078D01*
X134710714Y-68615983D01*
X134710714Y-68918364D01*
X134650238Y-69160269D01*
X134589761Y-69281221D01*
X134529285Y-69341697D01*
X134408333Y-69402173D01*
X134287380Y-69402173D01*
X134166428Y-69341697D01*
X134105952Y-69281221D01*
X134045476Y-69160269D01*
X133984999Y-68918364D01*
X133984999Y-68615983D01*
X134045476Y-68374078D01*
X134105952Y-68253126D01*
X134166428Y-68192650D01*
X134287380Y-68132173D01*
X135315476Y-69402173D02*
X135557380Y-69402173D01*
X135678333Y-69341697D01*
X135738809Y-69281221D01*
X135859761Y-69099792D01*
X135920238Y-68857888D01*
X135920238Y-68374078D01*
X135859761Y-68253126D01*
X135799285Y-68192650D01*
X135678333Y-68132173D01*
X135436428Y-68132173D01*
X135315476Y-68192650D01*
X135255000Y-68253126D01*
X135194523Y-68374078D01*
X135194523Y-68676459D01*
X135255000Y-68797411D01*
X135315476Y-68857888D01*
X135436428Y-68918364D01*
X135678333Y-68918364D01*
X135799285Y-68857888D01*
X135859761Y-68797411D01*
X135920238Y-68676459D01*
X137432142Y-69402173D02*
X137432142Y-68132173D01*
X137734523Y-68132173D01*
X137915952Y-68192650D01*
X138036904Y-68313602D01*
X138097380Y-68434554D01*
X138157857Y-68676459D01*
X138157857Y-68857888D01*
X138097380Y-69099792D01*
X138036904Y-69220745D01*
X137915952Y-69341697D01*
X137734523Y-69402173D01*
X137432142Y-69402173D01*
X139185952Y-69341697D02*
X139065000Y-69402173D01*
X138823095Y-69402173D01*
X138702142Y-69341697D01*
X138641666Y-69220745D01*
X138641666Y-68736935D01*
X138702142Y-68615983D01*
X138823095Y-68555507D01*
X139065000Y-68555507D01*
X139185952Y-68615983D01*
X139246428Y-68736935D01*
X139246428Y-68857888D01*
X138641666Y-68978840D01*
X139790714Y-69402173D02*
X139790714Y-68132173D01*
X139790714Y-68615983D02*
X139911666Y-68555507D01*
X140153571Y-68555507D01*
X140274523Y-68615983D01*
X140335000Y-68676459D01*
X140395476Y-68797411D01*
X140395476Y-69160269D01*
X140335000Y-69281221D01*
X140274523Y-69341697D01*
X140153571Y-69402173D01*
X139911666Y-69402173D01*
X139790714Y-69341697D01*
X141484047Y-68555507D02*
X141484047Y-69402173D01*
X140939761Y-68555507D02*
X140939761Y-69220745D01*
X141000238Y-69341697D01*
X141121190Y-69402173D01*
X141302619Y-69402173D01*
X141423571Y-69341697D01*
X141484047Y-69281221D01*
X142633095Y-68555507D02*
X142633095Y-69583602D01*
X142572619Y-69704554D01*
X142512142Y-69765030D01*
X142391190Y-69825507D01*
X142209761Y-69825507D01*
X142088809Y-69765030D01*
X142633095Y-69341697D02*
X142512142Y-69402173D01*
X142270238Y-69402173D01*
X142149285Y-69341697D01*
X142088809Y-69281221D01*
X142028333Y-69160269D01*
X142028333Y-68797411D01*
X142088809Y-68676459D01*
X142149285Y-68615983D01*
X142270238Y-68555507D01*
X142512142Y-68555507D01*
X142633095Y-68615983D01*
X144810238Y-69402173D02*
X144205476Y-69402173D01*
X144205476Y-68132173D01*
X145415000Y-69402173D02*
X145294047Y-69341697D01*
X145233571Y-69281221D01*
X145173095Y-69160269D01*
X145173095Y-68797411D01*
X145233571Y-68676459D01*
X145294047Y-68615983D01*
X145415000Y-68555507D01*
X145596428Y-68555507D01*
X145717380Y-68615983D01*
X145777857Y-68676459D01*
X145838333Y-68797411D01*
X145838333Y-69160269D01*
X145777857Y-69281221D01*
X145717380Y-69341697D01*
X145596428Y-69402173D01*
X145415000Y-69402173D01*
X146926904Y-68555507D02*
X146926904Y-69583602D01*
X146866428Y-69704554D01*
X146805952Y-69765030D01*
X146685000Y-69825507D01*
X146503571Y-69825507D01*
X146382619Y-69765030D01*
X146926904Y-69341697D02*
X146805952Y-69402173D01*
X146564047Y-69402173D01*
X146443095Y-69341697D01*
X146382619Y-69281221D01*
X146322142Y-69160269D01*
X146322142Y-68797411D01*
X146382619Y-68676459D01*
X146443095Y-68615983D01*
X146564047Y-68555507D01*
X146805952Y-68555507D01*
X146926904Y-68615983D01*
X147531666Y-69402173D02*
X147531666Y-68555507D01*
X147531666Y-68132173D02*
X147471190Y-68192650D01*
X147531666Y-68253126D01*
X147592142Y-68192650D01*
X147531666Y-68132173D01*
X147531666Y-68253126D01*
X148680714Y-69341697D02*
X148559761Y-69402173D01*
X148317857Y-69402173D01*
X148196904Y-69341697D01*
X148136428Y-69281221D01*
X148075952Y-69160269D01*
X148075952Y-68797411D01*
X148136428Y-68676459D01*
X148196904Y-68615983D01*
X148317857Y-68555507D01*
X148559761Y-68555507D01*
X148680714Y-68615983D01*
X150132142Y-69039316D02*
X150736904Y-69039316D01*
X150011190Y-69402173D02*
X150434523Y-68132173D01*
X150857857Y-69402173D01*
X151281190Y-68555507D02*
X151281190Y-69402173D01*
X151281190Y-68676459D02*
X151341666Y-68615983D01*
X151462619Y-68555507D01*
X151644047Y-68555507D01*
X151765000Y-68615983D01*
X151825476Y-68736935D01*
X151825476Y-69402173D01*
X152974523Y-69402173D02*
X152974523Y-68736935D01*
X152914047Y-68615983D01*
X152793095Y-68555507D01*
X152551190Y-68555507D01*
X152430238Y-68615983D01*
X152974523Y-69341697D02*
X152853571Y-69402173D01*
X152551190Y-69402173D01*
X152430238Y-69341697D01*
X152369761Y-69220745D01*
X152369761Y-69099792D01*
X152430238Y-68978840D01*
X152551190Y-68918364D01*
X152853571Y-68918364D01*
X152974523Y-68857888D01*
X153760714Y-69402173D02*
X153639761Y-69341697D01*
X153579285Y-69220745D01*
X153579285Y-68132173D01*
X154123571Y-68555507D02*
X154425952Y-69402173D01*
X154728333Y-68555507D02*
X154425952Y-69402173D01*
X154305000Y-69704554D01*
X154244523Y-69765030D01*
X154123571Y-69825507D01*
X155091190Y-68555507D02*
X155756428Y-68555507D01*
X155091190Y-69402173D01*
X155756428Y-69402173D01*
X156724047Y-69341697D02*
X156603095Y-69402173D01*
X156361190Y-69402173D01*
X156240238Y-69341697D01*
X156179761Y-69220745D01*
X156179761Y-68736935D01*
X156240238Y-68615983D01*
X156361190Y-68555507D01*
X156603095Y-68555507D01*
X156724047Y-68615983D01*
X156784523Y-68736935D01*
X156784523Y-68857888D01*
X156179761Y-68978840D01*
X157328809Y-69402173D02*
X157328809Y-68555507D01*
X157328809Y-68797411D02*
X157389285Y-68676459D01*
X157449761Y-68615983D01*
X157570714Y-68555507D01*
X157691666Y-68555507D01*
X159022142Y-69039316D02*
X159626904Y-69039316D01*
X158901190Y-69402173D02*
X159324523Y-68132173D01*
X159747857Y-69402173D01*
X160715476Y-69402173D02*
X160715476Y-68132173D01*
X160715476Y-69341697D02*
X160594523Y-69402173D01*
X160352619Y-69402173D01*
X160231666Y-69341697D01*
X160171190Y-69281221D01*
X160110714Y-69160269D01*
X160110714Y-68797411D01*
X160171190Y-68676459D01*
X160231666Y-68615983D01*
X160352619Y-68555507D01*
X160594523Y-68555507D01*
X160715476Y-68615983D01*
X161864523Y-69402173D02*
X161864523Y-68736935D01*
X161804047Y-68615983D01*
X161683095Y-68555507D01*
X161441190Y-68555507D01*
X161320238Y-68615983D01*
X161864523Y-69341697D02*
X161743571Y-69402173D01*
X161441190Y-69402173D01*
X161320238Y-69341697D01*
X161259761Y-69220745D01*
X161259761Y-69099792D01*
X161320238Y-68978840D01*
X161441190Y-68918364D01*
X161743571Y-68918364D01*
X161864523Y-68857888D01*
X162469285Y-68555507D02*
X162469285Y-69825507D01*
X162469285Y-68615983D02*
X162590238Y-68555507D01*
X162832142Y-68555507D01*
X162953095Y-68615983D01*
X163013571Y-68676459D01*
X163074047Y-68797411D01*
X163074047Y-69160269D01*
X163013571Y-69281221D01*
X162953095Y-69341697D01*
X162832142Y-69402173D01*
X162590238Y-69402173D01*
X162469285Y-69341697D01*
X163436904Y-68555507D02*
X163920714Y-68555507D01*
X163618333Y-68132173D02*
X163618333Y-69220745D01*
X163678809Y-69341697D01*
X163799761Y-69402173D01*
X163920714Y-69402173D01*
X164827857Y-69341697D02*
X164706904Y-69402173D01*
X164465000Y-69402173D01*
X164344047Y-69341697D01*
X164283571Y-69220745D01*
X164283571Y-68736935D01*
X164344047Y-68615983D01*
X164465000Y-68555507D01*
X164706904Y-68555507D01*
X164827857Y-68615983D01*
X164888333Y-68736935D01*
X164888333Y-68857888D01*
X164283571Y-68978840D01*
X165432619Y-69402173D02*
X165432619Y-68555507D01*
X165432619Y-68797411D02*
X165493095Y-68676459D01*
X165553571Y-68615983D01*
X165674523Y-68555507D01*
X165795476Y-68555507D01*
X134801428Y-70600207D02*
X135285238Y-70600207D01*
X134982857Y-71446873D02*
X134982857Y-70358302D01*
X135043333Y-70237350D01*
X135164285Y-70176873D01*
X135285238Y-70176873D01*
X135890000Y-71446873D02*
X135769047Y-71386397D01*
X135708571Y-71325921D01*
X135648095Y-71204969D01*
X135648095Y-70842111D01*
X135708571Y-70721159D01*
X135769047Y-70660683D01*
X135890000Y-70600207D01*
X136071428Y-70600207D01*
X136192380Y-70660683D01*
X136252857Y-70721159D01*
X136313333Y-70842111D01*
X136313333Y-71204969D01*
X136252857Y-71325921D01*
X136192380Y-71386397D01*
X136071428Y-71446873D01*
X135890000Y-71446873D01*
X136857619Y-71446873D02*
X136857619Y-70600207D01*
X136857619Y-70842111D02*
X136918095Y-70721159D01*
X136978571Y-70660683D01*
X137099523Y-70600207D01*
X137220476Y-70600207D01*
X139155714Y-70600207D02*
X139155714Y-71446873D01*
X138611428Y-70600207D02*
X138611428Y-71265445D01*
X138671904Y-71386397D01*
X138792857Y-71446873D01*
X138974285Y-71446873D01*
X139095238Y-71386397D01*
X139155714Y-71325921D01*
X139700000Y-71386397D02*
X139820952Y-71446873D01*
X140062857Y-71446873D01*
X140183809Y-71386397D01*
X140244285Y-71265445D01*
X140244285Y-71204969D01*
X140183809Y-71084016D01*
X140062857Y-71023540D01*
X139881428Y-71023540D01*
X139760476Y-70963064D01*
X139700000Y-70842111D01*
X139700000Y-70781635D01*
X139760476Y-70660683D01*
X139881428Y-70600207D01*
X140062857Y-70600207D01*
X140183809Y-70660683D01*
X141272380Y-71386397D02*
X141151428Y-71446873D01*
X140909523Y-71446873D01*
X140788571Y-71386397D01*
X140728095Y-71265445D01*
X140728095Y-70781635D01*
X140788571Y-70660683D01*
X140909523Y-70600207D01*
X141151428Y-70600207D01*
X141272380Y-70660683D01*
X141332857Y-70781635D01*
X141332857Y-70902588D01*
X140728095Y-71023540D01*
X142723809Y-70600207D02*
X142965714Y-71446873D01*
X143207619Y-70842111D01*
X143449523Y-71446873D01*
X143691428Y-70600207D01*
X144175238Y-71446873D02*
X144175238Y-70600207D01*
X144175238Y-70176873D02*
X144114761Y-70237350D01*
X144175238Y-70297826D01*
X144235714Y-70237350D01*
X144175238Y-70176873D01*
X144175238Y-70297826D01*
X144598571Y-70600207D02*
X145082380Y-70600207D01*
X144780000Y-70176873D02*
X144780000Y-71265445D01*
X144840476Y-71386397D01*
X144961428Y-71446873D01*
X145082380Y-71446873D01*
X145505714Y-71446873D02*
X145505714Y-70176873D01*
X146050000Y-71446873D02*
X146050000Y-70781635D01*
X145989523Y-70660683D01*
X145868571Y-70600207D01*
X145687142Y-70600207D01*
X145566190Y-70660683D01*
X145505714Y-70721159D01*
X148348095Y-71325921D02*
X148287619Y-71386397D01*
X148106190Y-71446873D01*
X147985238Y-71446873D01*
X147803809Y-71386397D01*
X147682857Y-71265445D01*
X147622380Y-71144492D01*
X147561904Y-70902588D01*
X147561904Y-70721159D01*
X147622380Y-70479254D01*
X147682857Y-70358302D01*
X147803809Y-70237350D01*
X147985238Y-70176873D01*
X148106190Y-70176873D01*
X148287619Y-70237350D01*
X148348095Y-70297826D01*
X148771428Y-70600207D02*
X149073809Y-71446873D01*
X149376190Y-70600207D02*
X149073809Y-71446873D01*
X148952857Y-71749254D01*
X148892380Y-71809730D01*
X148771428Y-71870207D01*
X149860000Y-70600207D02*
X149860000Y-71870207D01*
X149860000Y-70660683D02*
X149980952Y-70600207D01*
X150222857Y-70600207D01*
X150343809Y-70660683D01*
X150404285Y-70721159D01*
X150464761Y-70842111D01*
X150464761Y-71204969D01*
X150404285Y-71325921D01*
X150343809Y-71386397D01*
X150222857Y-71446873D01*
X149980952Y-71446873D01*
X149860000Y-71386397D01*
X151009047Y-71446873D02*
X151009047Y-70600207D01*
X151009047Y-70842111D02*
X151069523Y-70721159D01*
X151130000Y-70660683D01*
X151250952Y-70600207D01*
X151371904Y-70600207D01*
X152279047Y-71386397D02*
X152158095Y-71446873D01*
X151916190Y-71446873D01*
X151795238Y-71386397D01*
X151734761Y-71265445D01*
X151734761Y-70781635D01*
X151795238Y-70660683D01*
X151916190Y-70600207D01*
X152158095Y-70600207D01*
X152279047Y-70660683D01*
X152339523Y-70781635D01*
X152339523Y-70902588D01*
X151734761Y-71023540D01*
X152823333Y-71386397D02*
X152944285Y-71446873D01*
X153186190Y-71446873D01*
X153307142Y-71386397D01*
X153367619Y-71265445D01*
X153367619Y-71204969D01*
X153307142Y-71084016D01*
X153186190Y-71023540D01*
X153004761Y-71023540D01*
X152883809Y-70963064D01*
X152823333Y-70842111D01*
X152823333Y-70781635D01*
X152883809Y-70660683D01*
X153004761Y-70600207D01*
X153186190Y-70600207D01*
X153307142Y-70660683D01*
X153851428Y-71386397D02*
X153972380Y-71446873D01*
X154214285Y-71446873D01*
X154335238Y-71386397D01*
X154395714Y-71265445D01*
X154395714Y-71204969D01*
X154335238Y-71084016D01*
X154214285Y-71023540D01*
X154032857Y-71023540D01*
X153911904Y-70963064D01*
X153851428Y-70842111D01*
X153851428Y-70781635D01*
X153911904Y-70660683D01*
X154032857Y-70600207D01*
X154214285Y-70600207D01*
X154335238Y-70660683D01*
X156330952Y-70781635D02*
X155907619Y-70781635D01*
X155907619Y-71446873D02*
X155907619Y-70176873D01*
X156512380Y-70176873D01*
X156875238Y-70176873D02*
X157721904Y-71446873D01*
X157721904Y-70176873D02*
X156875238Y-71446873D01*
X158145238Y-70297826D02*
X158205714Y-70237350D01*
X158326666Y-70176873D01*
X158629047Y-70176873D01*
X158750000Y-70237350D01*
X158810476Y-70297826D01*
X158870952Y-70418778D01*
X158870952Y-70539730D01*
X158810476Y-70721159D01*
X158084761Y-71446873D01*
X158870952Y-71446873D01*
X160020000Y-71446873D02*
X159415238Y-71446873D01*
X159415238Y-70176873D01*
X160382857Y-71084016D02*
X160987619Y-71084016D01*
X160261904Y-71446873D02*
X160685238Y-70176873D01*
X161108571Y-71446873D01*
X149273380Y-73726523D02*
X149273380Y-74754619D01*
X149333857Y-74875571D01*
X149394333Y-74936047D01*
X149515285Y-74996523D01*
X149757190Y-74996523D01*
X149878142Y-74936047D01*
X149938619Y-74875571D01*
X149999095Y-74754619D01*
X149999095Y-73726523D01*
X150543380Y-74936047D02*
X150724809Y-74996523D01*
X151027190Y-74996523D01*
X151148142Y-74936047D01*
X151208619Y-74875571D01*
X151269095Y-74754619D01*
X151269095Y-74633666D01*
X151208619Y-74512714D01*
X151148142Y-74452238D01*
X151027190Y-74391761D01*
X150785285Y-74331285D01*
X150664333Y-74270809D01*
X150603857Y-74210333D01*
X150543380Y-74089380D01*
X150543380Y-73968428D01*
X150603857Y-73847476D01*
X150664333Y-73787000D01*
X150785285Y-73726523D01*
X151087666Y-73726523D01*
X151269095Y-73787000D01*
X152236714Y-74331285D02*
X152418142Y-74391761D01*
X152478619Y-74452238D01*
X152539095Y-74573190D01*
X152539095Y-74754619D01*
X152478619Y-74875571D01*
X152418142Y-74936047D01*
X152297190Y-74996523D01*
X151813380Y-74996523D01*
X151813380Y-73726523D01*
X152236714Y-73726523D01*
X152357666Y-73787000D01*
X152418142Y-73847476D01*
X152478619Y-73968428D01*
X152478619Y-74089380D01*
X152418142Y-74210333D01*
X152357666Y-74270809D01*
X152236714Y-74331285D01*
X151813380Y-74331285D01*
X173690595Y-84272380D02*
X173690595Y-83272380D01*
X174071547Y-83272380D01*
X174166785Y-83320000D01*
X174214404Y-83367619D01*
X174262023Y-83462857D01*
X174262023Y-83605714D01*
X174214404Y-83700952D01*
X174166785Y-83748571D01*
X174071547Y-83796190D01*
X173690595Y-83796190D01*
X174690595Y-84272380D02*
X174690595Y-83272380D01*
X174928690Y-83272380D01*
X175071547Y-83320000D01*
X175166785Y-83415238D01*
X175214404Y-83510476D01*
X175262023Y-83700952D01*
X175262023Y-83843809D01*
X175214404Y-84034285D01*
X175166785Y-84129523D01*
X175071547Y-84224761D01*
X174928690Y-84272380D01*
X174690595Y-84272380D01*
X176214404Y-84272380D02*
X175642976Y-84272380D01*
X175928690Y-84272380D02*
X175928690Y-83272380D01*
X175833452Y-83415238D01*
X175738214Y-83510476D01*
X175642976Y-83558095D01*
X133016666Y-90662380D02*
X133016666Y-91376666D01*
X132969047Y-91519523D01*
X132873809Y-91614761D01*
X132730952Y-91662380D01*
X132635714Y-91662380D01*
X133445238Y-90757619D02*
X133492857Y-90710000D01*
X133588095Y-90662380D01*
X133826190Y-90662380D01*
X133921428Y-90710000D01*
X133969047Y-90757619D01*
X134016666Y-90852857D01*
X134016666Y-90948095D01*
X133969047Y-91090952D01*
X133397619Y-91662380D01*
X134016666Y-91662380D01*
X160956666Y-90662380D02*
X160956666Y-91376666D01*
X160909047Y-91519523D01*
X160813809Y-91614761D01*
X160670952Y-91662380D01*
X160575714Y-91662380D01*
X161956666Y-91662380D02*
X161385238Y-91662380D01*
X161670952Y-91662380D02*
X161670952Y-90662380D01*
X161575714Y-90805238D01*
X161480476Y-90900476D01*
X161385238Y-90948095D01*
X132516666Y-134072380D02*
X132516666Y-134786666D01*
X132469047Y-134929523D01*
X132373809Y-135024761D01*
X132230952Y-135072380D01*
X132135714Y-135072380D01*
X132992857Y-135072380D02*
X132992857Y-134072380D01*
X133373809Y-134072380D01*
X133469047Y-134120000D01*
X133516666Y-134167619D01*
X133564285Y-134262857D01*
X133564285Y-134405714D01*
X133516666Y-134500952D01*
X133469047Y-134548571D01*
X133373809Y-134596190D01*
X132992857Y-134596190D01*
X134516666Y-135072380D02*
X133945238Y-135072380D01*
X134230952Y-135072380D02*
X134230952Y-134072380D01*
X134135714Y-134215238D01*
X134040476Y-134310476D01*
X133945238Y-134358095D01*
X169346666Y-88352380D02*
X169346666Y-89066666D01*
X169299047Y-89209523D01*
X169203809Y-89304761D01*
X169060952Y-89352380D01*
X168965714Y-89352380D01*
X169822857Y-89352380D02*
X169822857Y-88352380D01*
X170203809Y-88352380D01*
X170299047Y-88400000D01*
X170346666Y-88447619D01*
X170394285Y-88542857D01*
X170394285Y-88685714D01*
X170346666Y-88780952D01*
X170299047Y-88828571D01*
X170203809Y-88876190D01*
X169822857Y-88876190D01*
X170775238Y-88447619D02*
X170822857Y-88400000D01*
X170918095Y-88352380D01*
X171156190Y-88352380D01*
X171251428Y-88400000D01*
X171299047Y-88447619D01*
X171346666Y-88542857D01*
X171346666Y-88638095D01*
X171299047Y-88780952D01*
X170727619Y-89352380D01*
X171346666Y-89352380D01*
X172513333Y-75287142D02*
X172465714Y-75334761D01*
X172322857Y-75382380D01*
X172227619Y-75382380D01*
X172084761Y-75334761D01*
X171989523Y-75239523D01*
X171941904Y-75144285D01*
X171894285Y-74953809D01*
X171894285Y-74810952D01*
X171941904Y-74620476D01*
X171989523Y-74525238D01*
X172084761Y-74430000D01*
X172227619Y-74382380D01*
X172322857Y-74382380D01*
X172465714Y-74430000D01*
X172513333Y-74477619D01*
X173465714Y-75382380D02*
X172894285Y-75382380D01*
X173180000Y-75382380D02*
X173180000Y-74382380D01*
X173084761Y-74525238D01*
X172989523Y-74620476D01*
X172894285Y-74668095D01*
X183181666Y-134072380D02*
X183181666Y-134786666D01*
X183134047Y-134929523D01*
X183038809Y-135024761D01*
X182895952Y-135072380D01*
X182800714Y-135072380D01*
X183562619Y-134072380D02*
X184181666Y-134072380D01*
X183848333Y-134453333D01*
X183991190Y-134453333D01*
X184086428Y-134500952D01*
X184134047Y-134548571D01*
X184181666Y-134643809D01*
X184181666Y-134881904D01*
X184134047Y-134977142D01*
X184086428Y-135024761D01*
X183991190Y-135072380D01*
X183705476Y-135072380D01*
X183610238Y-135024761D01*
X183562619Y-134977142D01*
X172553333Y-71572380D02*
X172220000Y-71096190D01*
X171981904Y-71572380D02*
X171981904Y-70572380D01*
X172362857Y-70572380D01*
X172458095Y-70620000D01*
X172505714Y-70667619D01*
X172553333Y-70762857D01*
X172553333Y-70905714D01*
X172505714Y-71000952D01*
X172458095Y-71048571D01*
X172362857Y-71096190D01*
X171981904Y-71096190D01*
X173505714Y-71572380D02*
X172934285Y-71572380D01*
X173220000Y-71572380D02*
X173220000Y-70572380D01*
X173124761Y-70715238D01*
X173029523Y-70810476D01*
X172934285Y-70858095D01*
D10*
X135950000Y-92650000D02*
X135950000Y-93980000D01*
X133350000Y-95250000D02*
X135950000Y-95250000D01*
X130750000Y-92650000D02*
X130750000Y-118170000D01*
X130750000Y-118170000D02*
X135950000Y-118170000D01*
X135950000Y-95250000D02*
X135950000Y-118170000D01*
X130750000Y-92650000D02*
X133350000Y-92650000D01*
X134620000Y-92650000D02*
X135950000Y-92650000D01*
X133350000Y-92650000D02*
X133350000Y-95250000D01*
X158690000Y-92650000D02*
X158690000Y-118170000D01*
X158690000Y-118170000D02*
X163890000Y-118170000D01*
X162560000Y-92650000D02*
X163890000Y-92650000D01*
X161290000Y-95250000D02*
X163890000Y-95250000D01*
X161290000Y-92650000D02*
X161290000Y-95250000D01*
X158690000Y-92650000D02*
X161290000Y-92650000D01*
X163890000Y-92650000D02*
X163890000Y-93980000D01*
X163890000Y-95250000D02*
X163890000Y-118170000D01*
X133350000Y-133410000D02*
X130750000Y-133410000D01*
X133350000Y-130750000D02*
X130750000Y-130750000D01*
X133350000Y-130750000D02*
X133350000Y-133410000D01*
X134620000Y-130750000D02*
X135950000Y-130750000D01*
X135950000Y-130750000D02*
X135950000Y-132080000D01*
X130750000Y-130750000D02*
X130750000Y-133410000D01*
X168850000Y-80010000D02*
X171510000Y-80010000D01*
X168850000Y-87690000D02*
X171510000Y-87690000D01*
X168850000Y-78740000D02*
X168850000Y-77410000D01*
X168850000Y-77410000D02*
X170180000Y-77410000D01*
X168850000Y-80010000D02*
X168850000Y-87690000D01*
X171510000Y-80010000D02*
X171510000Y-87690000D01*
X170210000Y-76300000D02*
X175150000Y-76300000D01*
X170210000Y-75985000D02*
X170210000Y-76300000D01*
X175150000Y-73560000D02*
X175150000Y-73875000D01*
X170210000Y-73560000D02*
X170210000Y-73875000D01*
X170210000Y-73560000D02*
X175150000Y-73560000D01*
X175150000Y-75985000D02*
X175150000Y-76300000D01*
X180895000Y-71120000D02*
X179895000Y-70620000D01*
X195635000Y-137290000D02*
X186515000Y-137290000D01*
X186515000Y-103650000D02*
X195635000Y-103650000D01*
X186515000Y-99550000D02*
X195635000Y-99550000D01*
X179895000Y-70620000D02*
X179895000Y-71620000D01*
X186515000Y-65910000D02*
X195635000Y-65910000D01*
X186515000Y-137290000D02*
X186515000Y-65910000D01*
X195635000Y-65910000D02*
X195635000Y-137290000D01*
X179895000Y-71620000D02*
X180895000Y-71120000D01*
X175990000Y-72490000D02*
X175990000Y-69750000D01*
X175990000Y-69750000D02*
X169450000Y-69750000D01*
X169450000Y-72490000D02*
X175990000Y-72490000D01*
X169450000Y-69750000D02*
X169450000Y-72490000D01*
X168680000Y-71120000D02*
X169450000Y-71120000D01*
X176760000Y-71120000D02*
X175990000Y-71120000D01*
%LPC*%
D12*
X134620000Y-93980000D03*
D13*
X132080000Y-93980000D03*
X134620000Y-96520000D03*
X132080000Y-96520000D03*
X134620000Y-99060000D03*
X132080000Y-99060000D03*
X134620000Y-101600000D03*
X132080000Y-101600000D03*
X134620000Y-104140000D03*
X132080000Y-104140000D03*
X134620000Y-106680000D03*
X132080000Y-106680000D03*
X134620000Y-109220000D03*
X132080000Y-109220000D03*
X134620000Y-111760000D03*
X132080000Y-111760000D03*
X134620000Y-114300000D03*
X132080000Y-114300000D03*
X134620000Y-116840000D03*
X132080000Y-116840000D03*
D12*
X162560000Y-93980000D03*
D13*
X160020000Y-93980000D03*
X162560000Y-96520000D03*
X160020000Y-96520000D03*
X162560000Y-99060000D03*
X160020000Y-99060000D03*
X162560000Y-101600000D03*
X160020000Y-101600000D03*
X162560000Y-104140000D03*
X160020000Y-104140000D03*
X162560000Y-106680000D03*
X160020000Y-106680000D03*
X162560000Y-109220000D03*
X160020000Y-109220000D03*
X162560000Y-111760000D03*
X160020000Y-111760000D03*
X162560000Y-114300000D03*
X160020000Y-114300000D03*
X162560000Y-116840000D03*
X160020000Y-116840000D03*
D14*
X134620000Y-132080000D03*
D13*
X132080000Y-132080000D03*
D12*
X170180000Y-78740000D03*
D13*
X170180000Y-81280000D03*
X170180000Y-83820000D03*
X170180000Y-86360000D03*
D15*
X170180000Y-74930000D03*
X175180000Y-74930000D03*
D16*
X182245000Y-71120000D03*
D17*
X184785000Y-71120000D03*
X182245000Y-73660000D03*
X184785000Y-73660000D03*
X182245000Y-76200000D03*
X184785000Y-76200000D03*
X182245000Y-78740000D03*
X184785000Y-78740000D03*
X182245000Y-81280000D03*
X184785000Y-81280000D03*
X182245000Y-83820000D03*
X184785000Y-83820000D03*
X182245000Y-86360000D03*
X184785000Y-86360000D03*
X182245000Y-88900000D03*
X184785000Y-88900000D03*
X182245000Y-91440000D03*
X184785000Y-91440000D03*
X182245000Y-93980000D03*
X184785000Y-93980000D03*
X182245000Y-96520000D03*
X184785000Y-96520000D03*
X182245000Y-99060000D03*
X184785000Y-99060000D03*
X182245000Y-101600000D03*
X184785000Y-101600000D03*
X182245000Y-104140000D03*
X184785000Y-104140000D03*
X182245000Y-106680000D03*
X184785000Y-106680000D03*
X182245000Y-109220000D03*
X184785000Y-109220000D03*
X182245000Y-111760000D03*
X184785000Y-111760000D03*
X182245000Y-114300000D03*
X184785000Y-114300000D03*
X182245000Y-116840000D03*
X184785000Y-116840000D03*
X182245000Y-119380000D03*
X184785000Y-119380000D03*
X182245000Y-121920000D03*
X184785000Y-121920000D03*
X182245000Y-124460000D03*
X184785000Y-124460000D03*
X182245000Y-127000000D03*
X184785000Y-127000000D03*
X182245000Y-129540000D03*
X184785000Y-129540000D03*
X182245000Y-132080000D03*
X184785000Y-132080000D03*
D15*
X177800000Y-71120000D03*
D18*
X167640000Y-71120000D03*
M02*
