G04 #@! TF.GenerationSoftware,KiCad,Pcbnew,6.0.4-6f826c9f35~116~ubuntu18.04.1*
G04 #@! TF.CreationDate,2023-06-15T12:53:14+01:00*
G04 #@! TF.ProjectId,sbc09_debugger,73626330-395f-4646-9562-75676765722e,rev?*
G04 #@! TF.SameCoordinates,Original*
G04 #@! TF.FileFunction,Copper,L2,Bot*
G04 #@! TF.FilePolarity,Positive*
%FSLAX46Y46*%
G04 Gerber Fmt 4.6, Leading zero omitted, Abs format (unit mm)*
G04 Created by KiCad (PCBNEW 6.0.4-6f826c9f35~116~ubuntu18.04.1) date 2023-06-15 12:53:14*
%MOMM*%
%LPD*%
G01*
G04 APERTURE LIST*
G04 Aperture macros list*
%AMRoundRect*
0 Rectangle with rounded corners*
0 $1 Rounding radius*
0 $2 $3 $4 $5 $6 $7 $8 $9 X,Y pos of 4 corners*
0 Add a 4 corners polygon primitive as box body*
4,1,4,$2,$3,$4,$5,$6,$7,$8,$9,$2,$3,0*
0 Add four circle primitives for the rounded corners*
1,1,$1+$1,$2,$3*
1,1,$1+$1,$4,$5*
1,1,$1+$1,$6,$7*
1,1,$1+$1,$8,$9*
0 Add four rect primitives between the rounded corners*
20,1,$1+$1,$2,$3,$4,$5,0*
20,1,$1+$1,$4,$5,$6,$7,0*
20,1,$1+$1,$6,$7,$8,$9,0*
20,1,$1+$1,$8,$9,$2,$3,0*%
G04 Aperture macros list end*
G04 #@! TA.AperFunction,ComponentPad*
%ADD10R,1.700000X1.700000*%
G04 #@! TD*
G04 #@! TA.AperFunction,ComponentPad*
%ADD11O,1.700000X1.700000*%
G04 #@! TD*
G04 #@! TA.AperFunction,ComponentPad*
%ADD12C,1.600000*%
G04 #@! TD*
G04 #@! TA.AperFunction,ComponentPad*
%ADD13RoundRect,0.250000X-0.600000X-0.600000X0.600000X-0.600000X0.600000X0.600000X-0.600000X0.600000X0*%
G04 #@! TD*
G04 #@! TA.AperFunction,ComponentPad*
%ADD14C,1.700000*%
G04 #@! TD*
G04 #@! TA.AperFunction,ComponentPad*
%ADD15O,1.600000X1.600000*%
G04 #@! TD*
G04 #@! TA.AperFunction,ViaPad*
%ADD16C,0.660400*%
G04 #@! TD*
G04 #@! TA.AperFunction,Conductor*
%ADD17C,0.203200*%
G04 #@! TD*
G04 APERTURE END LIST*
D10*
X134620000Y-93980000D03*
D11*
X132080000Y-93980000D03*
X134620000Y-96520000D03*
X132080000Y-96520000D03*
X134620000Y-99060000D03*
X132080000Y-99060000D03*
X134620000Y-101600000D03*
X132080000Y-101600000D03*
X134620000Y-104140000D03*
X132080000Y-104140000D03*
X134620000Y-106680000D03*
X132080000Y-106680000D03*
X134620000Y-109220000D03*
X132080000Y-109220000D03*
X134620000Y-111760000D03*
X132080000Y-111760000D03*
X134620000Y-114300000D03*
X132080000Y-114300000D03*
X134620000Y-116840000D03*
X132080000Y-116840000D03*
D10*
X162560000Y-93980000D03*
D11*
X160020000Y-93980000D03*
X162560000Y-96520000D03*
X160020000Y-96520000D03*
X162560000Y-99060000D03*
X160020000Y-99060000D03*
X162560000Y-101600000D03*
X160020000Y-101600000D03*
X162560000Y-104140000D03*
X160020000Y-104140000D03*
X162560000Y-106680000D03*
X160020000Y-106680000D03*
X162560000Y-109220000D03*
X160020000Y-109220000D03*
X162560000Y-111760000D03*
X160020000Y-111760000D03*
X162560000Y-114300000D03*
X160020000Y-114300000D03*
X162560000Y-116840000D03*
X160020000Y-116840000D03*
D10*
X134620000Y-132080000D03*
D11*
X132080000Y-132080000D03*
D10*
X170180000Y-78740000D03*
D11*
X170180000Y-81280000D03*
X170180000Y-83820000D03*
X170180000Y-86360000D03*
D12*
X170180000Y-74930000D03*
X175180000Y-74930000D03*
D13*
X182245000Y-71120000D03*
D14*
X184785000Y-71120000D03*
X182245000Y-73660000D03*
X184785000Y-73660000D03*
X182245000Y-76200000D03*
X184785000Y-76200000D03*
X182245000Y-78740000D03*
X184785000Y-78740000D03*
X182245000Y-81280000D03*
X184785000Y-81280000D03*
X182245000Y-83820000D03*
X184785000Y-83820000D03*
X182245000Y-86360000D03*
X184785000Y-86360000D03*
X182245000Y-88900000D03*
X184785000Y-88900000D03*
X182245000Y-91440000D03*
X184785000Y-91440000D03*
X182245000Y-93980000D03*
X184785000Y-93980000D03*
X182245000Y-96520000D03*
X184785000Y-96520000D03*
X182245000Y-99060000D03*
X184785000Y-99060000D03*
X182245000Y-101600000D03*
X184785000Y-101600000D03*
X182245000Y-104140000D03*
X184785000Y-104140000D03*
X182245000Y-106680000D03*
X184785000Y-106680000D03*
X182245000Y-109220000D03*
X184785000Y-109220000D03*
X182245000Y-111760000D03*
X184785000Y-111760000D03*
X182245000Y-114300000D03*
X184785000Y-114300000D03*
X182245000Y-116840000D03*
X184785000Y-116840000D03*
X182245000Y-119380000D03*
X184785000Y-119380000D03*
X182245000Y-121920000D03*
X184785000Y-121920000D03*
X182245000Y-124460000D03*
X184785000Y-124460000D03*
X182245000Y-127000000D03*
X184785000Y-127000000D03*
X182245000Y-129540000D03*
X184785000Y-129540000D03*
X182245000Y-132080000D03*
X184785000Y-132080000D03*
D12*
X177800000Y-71120000D03*
D15*
X167640000Y-71120000D03*
D16*
X176530000Y-99060000D03*
X176530000Y-115570000D03*
X177800000Y-97790000D03*
X177800000Y-114300000D03*
X179070000Y-96520000D03*
X179070000Y-113030000D03*
X180340000Y-95250000D03*
X180340000Y-111760000D03*
D17*
X171450000Y-80010000D02*
X171450000Y-76200000D01*
X167640000Y-72390000D02*
X170180000Y-74930000D01*
X171450000Y-76200000D02*
X170180000Y-74930000D01*
X167640000Y-71120000D02*
X167640000Y-72390000D01*
X170180000Y-81280000D02*
X171450000Y-80010000D01*
X176530000Y-99060000D02*
X165100000Y-99060000D01*
X165100000Y-99060000D02*
X162560000Y-96520000D01*
X184875000Y-114320000D02*
X183625000Y-115570000D01*
X183625000Y-115570000D02*
X176530000Y-115570000D01*
X177800000Y-97790000D02*
X166370000Y-97790000D01*
X163830000Y-95250000D02*
X161290000Y-95250000D01*
X177800000Y-114300000D02*
X182245000Y-114300000D01*
X161290000Y-95250000D02*
X160020000Y-93980000D01*
X166370000Y-97790000D02*
X163830000Y-95250000D01*
X179070000Y-96520000D02*
X167640000Y-96520000D01*
X184765000Y-111780000D02*
X183515000Y-113030000D01*
X167640000Y-96520000D02*
X165100000Y-93980000D01*
X165100000Y-93980000D02*
X162560000Y-93980000D01*
X183515000Y-113030000D02*
X179070000Y-113030000D01*
X180340000Y-111760000D02*
X182245000Y-111760000D01*
X140335000Y-90805000D02*
X137160000Y-93980000D01*
X137160000Y-93980000D02*
X134620000Y-93980000D01*
X180340000Y-95250000D02*
X180340000Y-94615000D01*
X176530000Y-90805000D02*
X140335000Y-90805000D01*
X180340000Y-94615000D02*
X176530000Y-90805000D01*
X175260000Y-110490000D02*
X163195000Y-122555000D01*
X183515000Y-110490000D02*
X175260000Y-110490000D01*
X184785000Y-109220000D02*
X183515000Y-110490000D01*
X163195000Y-122555000D02*
X132715000Y-122555000D01*
X129540000Y-114300000D02*
X130810000Y-113030000D01*
X133350000Y-113030000D02*
X134620000Y-114300000D01*
X129540000Y-119380000D02*
X129540000Y-114300000D01*
X130810000Y-113030000D02*
X133350000Y-113030000D01*
X132715000Y-122555000D02*
X129540000Y-119380000D01*
X163195000Y-121285000D02*
X133350000Y-121285000D01*
X133350000Y-121285000D02*
X130175000Y-118110000D01*
X130175000Y-116205000D02*
X132080000Y-114300000D01*
X182245000Y-109220000D02*
X175260000Y-109220000D01*
X130175000Y-118110000D02*
X130175000Y-116205000D01*
X175260000Y-109220000D02*
X163195000Y-121285000D01*
X183515000Y-107950000D02*
X184785000Y-106680000D01*
X163195000Y-120015000D02*
X175260000Y-107950000D01*
X175260000Y-107950000D02*
X183515000Y-107950000D01*
X134620000Y-116840000D02*
X135890000Y-116840000D01*
X139065000Y-120015000D02*
X163195000Y-120015000D01*
X135890000Y-116840000D02*
X139065000Y-120015000D01*
X133350000Y-115570000D02*
X132080000Y-116840000D01*
X136525000Y-115570000D02*
X133350000Y-115570000D01*
X182245000Y-106680000D02*
X175260000Y-106680000D01*
X139700000Y-118745000D02*
X136525000Y-115570000D01*
X163195000Y-118745000D02*
X139700000Y-118745000D01*
X175260000Y-106680000D02*
X163195000Y-118745000D01*
X183515000Y-105410000D02*
X175260000Y-105410000D01*
X161290000Y-115570000D02*
X165100000Y-115570000D01*
X184785000Y-104140000D02*
X183515000Y-105410000D01*
X165100000Y-115570000D02*
X175260000Y-105410000D01*
X160020000Y-114300000D02*
X161290000Y-115570000D01*
X162560000Y-114300000D02*
X165100000Y-114300000D01*
X165100000Y-114300000D02*
X175260000Y-104140000D01*
X175260000Y-104140000D02*
X182245000Y-104140000D01*
X184785000Y-101600000D02*
X183515000Y-102870000D01*
X165100000Y-113030000D02*
X161290000Y-113030000D01*
X175260000Y-102870000D02*
X165100000Y-113030000D01*
X183515000Y-102870000D02*
X175260000Y-102870000D01*
X161290000Y-113030000D02*
X160020000Y-111760000D01*
X175260000Y-101600000D02*
X182245000Y-101600000D01*
X165100000Y-111760000D02*
X175260000Y-101600000D01*
X162560000Y-111760000D02*
X165100000Y-111760000D01*
X134620000Y-96520000D02*
X136525000Y-96520000D01*
X140970000Y-92075000D02*
X175895000Y-92075000D01*
X180340000Y-96520000D02*
X182245000Y-96520000D01*
X175895000Y-92075000D02*
X180340000Y-96520000D01*
X136525000Y-96520000D02*
X140970000Y-92075000D01*
X133350000Y-92710000D02*
X133350000Y-97790000D01*
X184785000Y-91440000D02*
X183515000Y-90170000D01*
X177165000Y-89535000D02*
X136525000Y-89535000D01*
X133350000Y-97790000D02*
X134620000Y-99060000D01*
X136525000Y-89535000D02*
X133350000Y-92710000D01*
X177800000Y-90170000D02*
X177165000Y-89535000D01*
X183515000Y-90170000D02*
X177800000Y-90170000D01*
X135890000Y-88265000D02*
X132080000Y-92075000D01*
X182245000Y-86360000D02*
X179070000Y-86360000D01*
X132080000Y-92075000D02*
X132080000Y-93980000D01*
X179070000Y-86360000D02*
X177165000Y-88265000D01*
X177165000Y-88265000D02*
X135890000Y-88265000D01*
X172085000Y-86360000D02*
X180975000Y-77470000D01*
X170180000Y-86360000D02*
X172085000Y-86360000D01*
X183515000Y-77470000D02*
X184785000Y-76200000D01*
X180975000Y-77470000D02*
X183515000Y-77470000D01*
X128270000Y-128270000D02*
X132080000Y-132080000D01*
X130175000Y-105410000D02*
X128270000Y-107315000D01*
X133350000Y-105410000D02*
X130175000Y-105410000D01*
X134620000Y-104140000D02*
X133350000Y-105410000D01*
X128270000Y-107315000D02*
X128270000Y-128270000D01*
X138430000Y-83820000D02*
X170180000Y-83820000D01*
X130810000Y-95250000D02*
X130810000Y-91440000D01*
X130810000Y-91440000D02*
X138430000Y-83820000D01*
X132080000Y-96520000D02*
X130810000Y-95250000D01*
X177800000Y-71120000D02*
X182245000Y-71120000D01*
M02*
