M48
; DRILL file {KiCad 6.0.4-6f826c9f35~116~ubuntu18.04.1} date Thu 15 Jun 2023 12:53:25 BST
; FORMAT={-:-/ absolute / metric / decimal}
; #@! TF.CreationDate,2023-06-15T12:53:25+01:00
; #@! TF.GenerationSoftware,Kicad,Pcbnew,6.0.4-6f826c9f35~116~ubuntu18.04.1
; #@! TF.FileFunction,Plated,1,2,PTH
FMAT,2
METRIC
; #@! TA.AperFunction,Plated,PTH,ViaDrill
T1C0.305
; #@! TA.AperFunction,Plated,PTH,ComponentDrill
T2C0.800
; #@! TA.AperFunction,Plated,PTH,ComponentDrill
T3C1.000
%
G90
G05
T1
X176.53Y-99.06
X176.53Y-115.57
X177.8Y-97.79
X177.8Y-114.3
X179.07Y-96.52
X179.07Y-113.03
X180.34Y-95.25
X180.34Y-111.76
T2
X167.64Y-71.12
X170.18Y-74.93
X175.18Y-74.93
X177.8Y-71.12
T3
X132.08Y-93.98
X132.08Y-96.52
X132.08Y-99.06
X132.08Y-101.6
X132.08Y-104.14
X132.08Y-106.68
X132.08Y-109.22
X132.08Y-111.76
X132.08Y-114.3
X132.08Y-116.84
X132.08Y-132.08
X134.62Y-93.98
X134.62Y-96.52
X134.62Y-99.06
X134.62Y-101.6
X134.62Y-104.14
X134.62Y-106.68
X134.62Y-109.22
X134.62Y-111.76
X134.62Y-114.3
X134.62Y-116.84
X134.62Y-132.08
X160.02Y-93.98
X160.02Y-96.52
X160.02Y-99.06
X160.02Y-101.6
X160.02Y-104.14
X160.02Y-106.68
X160.02Y-109.22
X160.02Y-111.76
X160.02Y-114.3
X160.02Y-116.84
X162.56Y-93.98
X162.56Y-96.52
X162.56Y-99.06
X162.56Y-101.6
X162.56Y-104.14
X162.56Y-106.68
X162.56Y-109.22
X162.56Y-111.76
X162.56Y-114.3
X162.56Y-116.84
X170.18Y-78.74
X170.18Y-81.28
X170.18Y-83.82
X170.18Y-86.36
X182.245Y-71.12
X182.245Y-73.66
X182.245Y-76.2
X182.245Y-78.74
X182.245Y-81.28
X182.245Y-83.82
X182.245Y-86.36
X182.245Y-88.9
X182.245Y-91.44
X182.245Y-93.98
X182.245Y-96.52
X182.245Y-99.06
X182.245Y-101.6
X182.245Y-104.14
X182.245Y-106.68
X182.245Y-109.22
X182.245Y-111.76
X182.245Y-114.3
X182.245Y-116.84
X182.245Y-119.38
X182.245Y-121.92
X182.245Y-124.46
X182.245Y-127.0
X182.245Y-129.54
X182.245Y-132.08
X184.785Y-71.12
X184.785Y-73.66
X184.785Y-76.2
X184.785Y-78.74
X184.785Y-81.28
X184.785Y-83.82
X184.785Y-86.36
X184.785Y-88.9
X184.785Y-91.44
X184.785Y-93.98
X184.785Y-96.52
X184.785Y-99.06
X184.785Y-101.6
X184.785Y-104.14
X184.785Y-106.68
X184.785Y-109.22
X184.785Y-111.76
X184.785Y-114.3
X184.785Y-116.84
X184.785Y-119.38
X184.785Y-121.92
X184.785Y-124.46
X184.785Y-127.0
X184.785Y-129.54
X184.785Y-132.08
T0
M30
